HIERARCHY
ROOT Hips
{
	OFFSET 0.000000 97.420761 0.000000
	CHANNELS 6 Xposition Yposition Zposition Xrotation Yrotation Zrotation
	JOINT RightUpLeg
	{
		OFFSET -8.571318 0.002251 -0.000250
		CHANNELS 6 Xposition Yposition Zposition Xrotation Yrotation Zrotation
		JOINT RightLeg
		{
			OFFSET 0.000000 -44.326080 -0.000105
			CHANNELS 6 Xposition Yposition Zposition Xrotation Yrotation Zrotation
			JOINT RightFoot
			{
				OFFSET 0.000000 -43.324329 -0.000176
				CHANNELS 6 Xposition Yposition Zposition Xrotation Yrotation Zrotation
				JOINT RightToeBase
				{
					OFFSET 0.000000 -7.938133 18.050686
					CHANNELS 6 Xposition Yposition Zposition Xrotation Yrotation Zrotation
					End Site
					{
						OFFSET 0.000000 0.000000 19.719055
					}
				}
			}
		}
	}
	JOINT LeftUpLeg
	{
		OFFSET 8.571318 -0.000084 0.000009
		CHANNELS 6 Xposition Yposition Zposition Xrotation Yrotation Zrotation
		JOINT LeftLeg
		{
			OFFSET 0.000000 -44.326080 -0.000105
			CHANNELS 6 Xposition Yposition Zposition Xrotation Yrotation Zrotation
			JOINT LeftFoot
			{
				OFFSET 0.000000 -43.324329 -0.000176
				CHANNELS 6 Xposition Yposition Zposition Xrotation Yrotation Zrotation
				JOINT LeftToeBase
				{
					OFFSET 0.000000 -7.938133 18.050686
					CHANNELS 6 Xposition Yposition Zposition Xrotation Yrotation Zrotation
					End Site
					{
						OFFSET 0.000000 0.000000 19.719055
					}
				}
			}
		}
	}
	JOINT Spine
	{
		OFFSET 0.000000 10.422829 -1.158092
		CHANNELS 6 Xposition Yposition Zposition Xrotation Yrotation Zrotation
		JOINT Spine1
		{
			OFFSET 0.000000 11.587624 0.000000
			CHANNELS 3 Xrotation Yrotation Zrotation
			JOINT Spine2
			{
				OFFSET 0.000000 10.579559 -0.000443
				CHANNELS 6 Xposition Yposition Zposition Xrotation Yrotation Zrotation
				JOINT Spine3
				{
					OFFSET 0.000000 10.567749 -0.000444
					CHANNELS 6 Xposition Yposition Zposition Xrotation Yrotation Zrotation
					JOINT LeftShoulder
					{
						OFFSET 3.218383 8.290512 0.000000
						CHANNELS 6 Xposition Yposition Zposition Xrotation Yrotation Zrotation
						JOINT LeftArm
						{
							OFFSET 15.038529 0.000000 0.000000
							CHANNELS 3 Xrotation Yrotation Zrotation
							JOINT LeftForeArm
							{
								OFFSET 32.129166 0.000000 0.000000
								CHANNELS 3 Xrotation Yrotation Zrotation
								JOINT LeftHand
								{
									OFFSET 26.275406 0.000000 0.000000
									CHANNELS 3 Xrotation Yrotation Zrotation
									End Site
									{
										OFFSET 26.275406 0.000000 0.000000
									}
								}
							}
						}
					}
					JOINT RightShoulder
					{
						OFFSET -3.218383 8.290512 0.000000
						CHANNELS 6 Xposition Yposition Zposition Xrotation Yrotation Zrotation
						JOINT RightArm
						{
							OFFSET -15.038529 0.000000 0.000000
							CHANNELS 3 Xrotation Yrotation Zrotation
							JOINT RightForeArm
							{
								OFFSET -32.129166 0.000000 0.000000
								CHANNELS 3 Xrotation Yrotation Zrotation
								JOINT RightHand
								{
									OFFSET -26.275406 0.000000 0.000000
									CHANNELS 3 Xrotation Yrotation Zrotation
									End Site
									{
										OFFSET -26.275406 0.000000 0.000000
									}
								}
							}
						}
					}
					JOINT Neck
					{
						OFFSET 0.000000 14.789474 0.000000
						CHANNELS 6 Xposition Yposition Zposition Xrotation Yrotation Zrotation
						JOINT Head
						{
							OFFSET 0.000000 9.838806 0.000953
							CHANNELS 6 Xposition Yposition Zposition Xrotation Yrotation Zrotation
							End Site
							{
								OFFSET 0.000000 9.838806 0.000000
							}
						}
					}
				}
			}
		}
	}
}
MOTION
Frames: 4
Frame Time: 0.016667
0.000000 97.420761 0.000000 -0.000000 0.000000 -0.000000 -8.571318 0.002251 -0.000250 -0.000000 0.000000 -0.000000 0.000000 -44.326080 -0.000105 -0.000000 0.000000 -0.000000 0.000000 -43.324329 -0.000176 -0.000000 0.000000 -0.000000 0.000000 -7.938133 18.050686 -0.000000 0.000000 -0.000000 8.571318 -0.000084 0.000009 -0.000000 0.000000 -0.000000 0.000000 -44.326080 -0.000105 -0.000000 0.000000 -0.000000 0.000000 -43.324329 -0.000176 -0.000000 0.000000 -0.000000 0.000000 -7.938133 18.050686 -0.000000 0.000000 -0.000000 0.000000 10.422829 -1.158092 -0.000000 0.000000 -0.000000 -0.000000 0.000000 -0.000000 0.000000 10.579559 -0.000443 -0.000000 0.000000 -0.000000 0.000000 10.567749 -0.000444 -0.000000 0.000000 -0.000000 3.218383 8.290512 0.000000 -0.000000 0.000000 -0.000000 -0.000000 0.000000 -0.000000 -0.000000 0.000000 -0.000000 -0.000000 0.000000 -0.000000 -3.218383 8.290512 0.000000 -0.000000 0.000000 -0.000000 -0.000000 0.000000 -0.000000 -0.000000 0.000000 -0.000000 -0.000000 0.000000 -0.000000 0.000000 14.789474 0.000000 -0.000000 0.000000 -0.000000 0.000000 9.838806 0.000953 -0.000000 0.000000 -0.000000 
-109.000694 27.803024 103.529114 -13.372559 16.576538 5.686456 -8.571301 0.002250 -0.000244 -93.200513 -37.635763 -9.759846 -0.000005 -44.326099 -0.000099 100.814391 -0.912578 12.446142 -0.000004 -43.324310 -0.000162 0.056857 9.968901 33.372758 0.000002 -7.938145 18.050673 0.000001 0.000001 -0.000000 8.571319 -0.000086 0.000009 -87.639995 26.906900 12.131109 -0.000011 -44.326088 -0.000098 99.737831 2.951186 -24.094165 0.000013 -43.324322 -0.000167 -10.153324 -27.534857 -33.505213 0.000008 -7.938125 18.050684 -0.000002 0.000002 -0.000000 0.000010 10.422840 -1.158087 17.844141 -3.746920 1.541874 2.198574 -1.769182 0.364006 0.000006 10.579576 -0.000438 7.904980 -1.769667 0.362080 0.000008 10.567770 -0.000429 11.651208 -1.300516 0.381514 3.218380 8.290510 -0.000006 -2.149628 -3.119632 -15.252888 -37.430704 -50.548304 -58.326762 10.329567 -51.226385 25.797963 7.095913 3.766750 19.765454 -3.218384 8.290506 0.000004 -5.131173 0.373372 11.452618 -73.515840 31.138327 65.756362 -10.195613 30.386917 16.040394 7.998198 0.005257 -10.781530 -0.000003 14.789473 0.000001 2.012680 4.350936 -2.062717 0.000009 9.838800 0.000955 -31.663603 8.818198 -1.323411 
-111.168053 26.624413 105.873039 -14.411219 16.954065 6.090579 -8.571314 0.002250 -0.000256 -94.061520 -38.211521 -10.693251 -0.000008 -44.326069 -0.000106 102.075476 0.186676 11.945770 -0.000006 -43.324337 -0.000183 -0.183183 9.579453 34.504138 0.000001 -7.938140 18.050673 0.000000 -0.000001 -0.000000 8.571319 -0.000088 -0.000002 -88.616616 27.676722 13.275297 -0.000002 -44.326080 -0.000100 100.655869 0.699164 -23.074437 0.000004 -43.324326 -0.000169 -10.653073 -26.569040 -34.771506 -0.000008 -7.938129 18.050678 -0.000000 -0.000001 -0.000001 0.000003 10.422819 -1.158108 18.253037 -3.663525 1.535474 2.267188 -1.733660 0.363087 0.000000 10.579558 -0.000441 8.087627 -1.733706 0.362909 0.000003 10.567754 -0.000444 11.902315 -1.273279 0.380622 3.218378 8.290510 -0.000004 -1.976783 -3.230493 -15.541438 -36.612389 -49.848534 -58.269874 11.684184 -53.056643 26.912323 6.229502 4.099755 21.204343 -3.218385 8.290515 -0.000007 -5.375391 0.142573 12.102533 -72.620135 29.999243 64.494334 -12.374306 30.613123 18.225252 6.894391 0.107632 -14.143809 0.000003 14.789471 -0.000000 2.068749 4.133038 -2.014675 -0.000004 9.838813 0.000961 -32.252235 8.407381 -1.306753 
-111.165604 26.800179 106.040100 -15.056962 17.007458 6.314906 -8.571327 0.002252 -0.000257 -93.000170 -38.383686 -10.720095 -0.000009 -44.326080 -0.000088 101.619957 0.879214 11.389206 -0.000003 -43.324329 -0.000173 -0.314259 9.159374 34.884751 0.000003 -7.938142 18.050663 -0.000001 -0.000001 0.000000 8.571316 -0.000078 0.000003 -87.917970 28.162887 13.686416 -0.000004 -44.326080 -0.000100 100.082994 -0.809484 -21.968035 -0.000006 -43.324341 -0.000162 -10.769278 -25.474452 -35.197679 -0.000003 -7.938137 18.050678 -0.000001 -0.000001 -0.000000 0.000001 10.422838 -1.158091 18.292746 -3.513104 1.498306 2.286147 -1.664753 0.359227 0.000001 10.579561 -0.000441 8.106577 -1.664790 0.359056 -0.000027 10.567734 -0.000439 11.916488 -1.222011 0.373345 3.218380 8.290501 -0.000006 -1.822884 -3.251607 -15.522237 -34.469052 -48.650191 -56.552146 11.855512 -53.511032 26.334354 5.518488 4.256057 22.231699 -3.218385 8.290510 -0.000004 -5.469437 -0.067942 12.466363 -70.259526 29.140548 61.882060 -13.115824 30.304921 19.568682 5.966375 0.206850 -17.016901 -0.000003 14.789475 -0.000002 2.042573 3.856226 -1.938664 -0.000000 9.838818 0.000959 -32.288784 7.876638 -1.322688 
